<svg width="46" height="46" viewBox="0 0 46 46" fill="none" xmlns="http://www.w3.org/2000/svg">
<g filter="url(#filter0_d)">
<path d="M37.5353 20.8525C37.6086 20.2587 37.6575 19.6413 37.6575 19C37.6575 18.3587 37.6086 17.7413 37.5109 17.1475L41.6394 14.0125C42.0059 13.7275 42.1036 13.205 41.8837 12.8012L37.9751 6.2225C37.7308 5.795 37.2178 5.6525 36.778 5.795L31.9166 7.695C30.8906 6.935 29.8157 6.3175 28.6187 5.8425L27.8858 0.8075C27.8125 0.3325 27.3972 0 26.9087 0H19.0913C18.6028 0 18.2119 0.3325 18.1386 0.8075L17.4057 5.8425C16.2087 6.3175 15.1094 6.95875 14.1078 7.695L9.24639 5.795C8.80667 5.62875 8.29366 5.795 8.04936 6.2225L4.1407 12.8012C3.89641 13.2287 3.99413 13.7275 4.38499 14.0125L8.51352 17.1475C8.4158 17.7413 8.34251 18.3825 8.34251 19C8.34251 19.6175 8.39137 20.2587 8.48909 20.8525L4.36056 23.9875C3.99413 24.2725 3.89641 24.795 4.11627 25.1987L8.02493 31.7775C8.26923 32.205 8.78224 32.3475 9.22196 32.205L14.0834 30.305C15.1094 31.065 16.1843 31.6825 17.3813 32.1575L18.1142 37.1925C18.2119 37.6675 18.6028 38 19.0913 38H26.9087C27.3972 38 27.8125 37.6675 27.8614 37.1925L28.5943 32.1575C29.7913 31.6825 30.8906 31.0413 31.8922 30.305L36.7536 32.205C37.1933 32.3713 37.7063 32.205 37.9506 31.7775L41.8593 25.1987C42.1036 24.7712 42.0059 24.2725 41.615 23.9875L37.5353 20.8525ZM23 26.125C18.9692 26.125 15.6713 22.9188 15.6713 19C15.6713 15.0813 18.9692 11.875 23 11.875C27.0308 11.875 30.3287 15.0813 30.3287 19C30.3287 22.9188 27.0308 26.125 23 26.125Z" fill="#FF785A"/>
<path d="M36.9399 20.779L36.8979 21.1193L37.1698 21.3283L41.2494 24.4633L41.2554 24.4679L41.2615 24.4723C41.3929 24.5681 41.4376 24.7242 41.3404 24.8975L37.4348 31.471L37.4347 31.471L37.4297 31.4798C37.3378 31.6406 37.1422 31.7092 36.9682 31.6447C36.9674 31.6444 36.9666 31.6441 36.9658 31.6438L32.1106 29.7462L31.803 29.6259L31.5368 29.8216C30.5698 30.5324 29.5151 31.1466 28.373 31.5998L28.0505 31.7278L28.0005 32.0711L27.2677 37.1061L27.2658 37.1186L27.2645 37.1311C27.2514 37.2588 27.133 37.4 26.9087 37.4H19.0913C18.9029 37.4 18.7514 37.284 18.7049 37.0855L17.975 32.0711L17.9251 31.7278L17.6026 31.5998C16.4587 31.1459 15.429 30.5551 14.4405 29.8229L14.1739 29.6254L13.865 29.7462L9.02312 31.6385C8.81151 31.701 8.62398 31.6165 8.54588 31.4798L8.54595 31.4798L8.54076 31.471L4.63924 24.9043C4.56035 24.7507 4.60491 24.5593 4.72694 24.4627L8.85194 21.3303L9.13982 21.1117L9.08112 20.7551C8.98914 20.1961 8.94251 19.5876 8.94251 19C8.94251 18.4268 9.01083 17.8205 9.10555 17.2449L9.16425 16.8883L8.87637 16.6697L4.74785 13.5347L4.74791 13.5346L4.73849 13.5277C4.60707 13.4319 4.56243 13.2758 4.65961 13.1025L8.56519 6.52897L8.56526 6.52901L8.57031 6.52019C8.66216 6.35945 8.85781 6.29086 9.03179 6.35533L13.8894 8.25383L14.197 8.37407L14.4632 8.17844C15.4302 7.46757 16.4849 6.8534 17.627 6.4002L17.9495 6.27224L17.9995 5.92892L18.7319 0.896999C18.7599 0.721113 18.894 0.6 19.0913 0.6H26.9087C27.1247 0.6 27.2672 0.738951 27.2926 0.897162C27.2927 0.897772 27.2928 0.898382 27.2928 0.898991L28.025 5.92892L28.0749 6.27224L28.3974 6.4002C29.5413 6.85411 30.571 7.44489 31.5595 8.17714L31.8261 8.37459L32.135 8.25383L36.9769 6.36148C37.1885 6.29904 37.376 6.38352 37.4541 6.52019L37.454 6.52023L37.4592 6.52897L41.3608 13.0957C41.4396 13.2493 41.3951 13.4408 41.273 13.5373C41.2724 13.5379 41.2717 13.5384 41.2711 13.5389L37.1481 16.6697L36.8602 16.8883L36.9189 17.2449C37.011 17.8045 37.0575 18.3893 37.0575 19C37.0575 19.6109 37.0109 20.2031 36.9399 20.779ZM15.0713 19C15.0713 23.266 18.6539 26.725 23 26.725C27.3461 26.725 30.9287 23.266 30.9287 19C30.9287 14.734 27.3461 11.275 23 11.275C18.6539 11.275 15.0713 14.734 15.0713 19Z" stroke="black" stroke-width="1.2"/>
</g>
<defs>
<filter id="filter0_d" x="0" y="0" width="46" height="46" filterUnits="userSpaceOnUse" color-interpolation-filters="sRGB">
<feFlood flood-opacity="0" result="BackgroundImageFix"/>
<feColorMatrix in="SourceAlpha" type="matrix" values="0 0 0 0 0 0 0 0 0 0 0 0 0 0 0 0 0 0 127 0"/>
<feOffset dy="4"/>
<feGaussianBlur stdDeviation="2"/>
<feColorMatrix type="matrix" values="0 0 0 0 0 0 0 0 0 0 0 0 0 0 0 0 0 0 0.25 0"/>
<feBlend mode="normal" in2="BackgroundImageFix" result="effect1_dropShadow"/>
<feBlend mode="normal" in="SourceGraphic" in2="effect1_dropShadow" result="shape"/>
</filter>
</defs>
</svg>
