<svg width="43" height="43" viewBox="0 0 43 43" fill="none" xmlns="http://www.w3.org/2000/svg">
<g filter="url(#filter0_d)">
<path d="M17.7861 24.4806L20.5278 27.2222L30.25 17.5L20.5278 7.77778L17.7861 10.5194L22.8028 15.5556H4V19.4444H22.8028L17.7861 24.4806ZM35.1111 0H7.88889C5.73056 0 4 1.75 4 3.88889V11.6667H7.88889V3.88889H35.1111V31.1111H7.88889V23.3333H4V31.1111C4 33.25 5.73056 35 7.88889 35H35.1111C37.25 35 39 33.25 39 31.1111V3.88889C39 1.75 37.25 0 35.1111 0Z" fill="black"/>
</g>
<defs>
<filter id="filter0_d" x="0" y="0" width="43" height="43" filterUnits="userSpaceOnUse" color-interpolation-filters="sRGB">
<feFlood flood-opacity="0" result="BackgroundImageFix"/>
<feColorMatrix in="SourceAlpha" type="matrix" values="0 0 0 0 0 0 0 0 0 0 0 0 0 0 0 0 0 0 127 0"/>
<feOffset dy="4"/>
<feGaussianBlur stdDeviation="2"/>
<feColorMatrix type="matrix" values="0 0 0 0 0 0 0 0 0 0 0 0 0 0 0 0 0 0 0.25 0"/>
<feBlend mode="normal" in2="BackgroundImageFix" result="effect1_dropShadow"/>
<feBlend mode="normal" in="SourceGraphic" in2="effect1_dropShadow" result="shape"/>
</filter>
</defs>
</svg>
